<?xml version="1.0" encoding="utf-8"?>
<!-- Generator: Adobe Illustrator 25.4.1, SVG Export Plug-In . SVG Version: 6.00 Build 0)  -->
<svg version="1.0" id="图层_1" xmlns="http://www.w3.org/2000/svg" xmlns:xlink="http://www.w3.org/1999/xlink" x="0px" y="0px"
	 viewBox="0 0 600 300" style="enable-background:new 0 0 600 300;" xml:space="preserve">
<style type="text/css">
	.st0{opacity:0.2;fill:#040000;}
	.st1{opacity:0.2;fill:#040000;stroke:#000000;stroke-linecap:round;stroke-linejoin:round;stroke-miterlimit:10;}
	.st2{fill:none;stroke:#040000;stroke-width:0.7;stroke-linecap:round;stroke-linejoin:round;stroke-miterlimit:10;}
	.st3{fill:#0D7272;}
	.st4{fill:#595757;}
	.st5{fill:none;stroke:#040000;stroke-width:0.2268;stroke-miterlimit:2;}
</style>
<path class="st0" d="M258.5,208.5H29.3c-1.4,0-2.5-1.1-2.5-2.5V69.4c0-1.4,1.1-2.5,2.5-2.5h229.2c1.4,0,2.5,1.1,2.5,2.5V206
	C261,207.4,259.9,208.5,258.5,208.5z"/>
<rect x="47.5" y="79.9" class="st1" width="192.7" height="115.5"/>
<line class="st2" x1="22.3" y1="68.2" x2="22.3" y2="207.2"/>
<line class="st2" x1="26.7" y1="68.2" x2="26.7" y2="207.2"/>
<line class="st2" x1="157.4" y1="215" x2="130.5" y2="215"/>
<line class="st2" x1="259.8" y1="213" x2="160.8" y2="213"/>
<line class="st2" x1="127.1" y1="213" x2="28.1" y2="213"/>
<line class="st2" x1="28.1" y1="208.5" x2="259.8" y2="208.5"/>
<line class="st2" x1="128.2" y1="61.9" x2="129" y2="61"/>
<line class="st2" x1="129" y1="214.4" x2="128.2" y2="213.6"/>
<line class="st2" x1="159.7" y1="213.6" x2="158.9" y2="214.4"/>
<line class="st2" x1="158.9" y1="61" x2="159.7" y2="61.9"/>
<line class="st2" x1="259.8" y1="66.9" x2="28.1" y2="66.9"/>
<line class="st2" x1="28.1" y1="62.5" x2="127.1" y2="62.5"/>
<line class="st2" x1="160.8" y1="62.5" x2="259.8" y2="62.5"/>
<line class="st2" x1="130.5" y1="60.4" x2="157.4" y2="60.4"/>
<line class="st2" x1="261.1" y1="207.2" x2="261.1" y2="68.2"/>
<line class="st2" x1="265.6" y1="207.2" x2="265.6" y2="68.2"/>
<path class="st2" d="M259.8,213l0.8,0c2.5-0.4,4.5-2.4,4.9-4.9l0-0.8"/>
<path class="st2" d="M22.3,207.2l0,0.8c0.4,2.5,2.4,4.5,4.9,4.9l0.8,0"/>
<path class="st2" d="M28.1,62.5l-0.8,0c-2.5,0.4-4.5,2.4-4.9,4.9l0,0.8"/>
<path class="st2" d="M265.6,68.2l0-0.8c-0.4-2.5-2.4-4.5-4.9-4.9l-0.8,0"/>
<polyline class="st2" points="129,214.4 129.4,214.7 129.9,214.9 130.5,215 "/>
<polyline class="st2" points="157.4,215 157.9,214.9 158.4,214.7 158.8,214.4 "/>
<polyline class="st2" points="158.8,61 158.4,60.7 157.9,60.5 157.4,60.4 "/>
<polyline class="st2" points="130.5,60.4 129.9,60.5 129.4,60.7 129,61 "/>
<polyline class="st2" points="128.2,213.6 127.8,213.3 127.2,213.1 126.7,213 "/>
<polyline class="st2" points="159.7,61.8 160.1,62.2 160.7,62.4 161.2,62.4 "/>
<polyline class="st2" points="161.2,213 160.7,213.1 160.1,213.3 159.7,213.6 "/>
<polyline class="st2" points="126.7,62.4 127.2,62.4 127.8,62.2 128.2,61.8 "/>
<polyline class="st2" points="28.1,66.9 27.7,67 27.3,67.2 27,67.5 26.8,67.9 26.8,68.2 "/>
<polyline class="st2" points="261.1,68.2 261.1,67.9 260.9,67.5 260.6,67.2 260.2,67 259.8,66.9 "/>
<polyline class="st2" points="259.8,208.5 260.2,208.5 260.6,208.2 260.9,208 261.1,207.6 261.1,207.2 "/>
<polyline class="st2" points="26.8,207.2 26.8,207.6 27,208 27.3,208.2 27.7,208.5 28.1,208.5 "/>
<line class="st2" x1="151.8" y1="215" x2="152.2" y2="215"/>
<line class="st2" x1="140.9" y1="66.9" x2="141.3" y2="66.9"/>
<g>
	<path class="st3" d="M192.7,200c-0.1-0.1-0.3-0.1-0.4,0l-0.5,0.5h-3.8l-0.5-0.5c-0.1-0.1-0.3-0.1-0.4,0l-0.5,0.5v5.1
		c0,0.2,0.2,0.4,0.4,0.4h0.5c0.2,0,0.4-0.2,0.4-0.4V202c0-0.1,0.1-0.3,0.3-0.3h3.3c0.1,0,0.3,0.1,0.3,0.3v3.5c0,0.2,0.2,0.4,0.4,0.4
		h0.5c0.2,0,0.4-0.2,0.4-0.4v-5.1L192.7,200z"/>
	<path class="st3" d="M200.7,202.8v2.7c0,0.2-0.2,0.4-0.4,0.4h-0.5c-0.2,0-0.4-0.2-0.4-0.4v-1.4c0-0.1-0.1-0.3-0.3-0.3h-3.3
		c-0.1,0-0.3,0.1-0.3,0.3v1.4c0,0.2-0.2,0.4-0.4,0.4h-0.5c-0.2,0-0.4-0.2-0.4-0.4v-2.7l0.5-0.5c0.1-0.1,0.3-0.1,0.4,0l0.5,0.5h3.8
		l0.5-0.5c0.1-0.1,0.3-0.1,0.4,0L200.7,202.8z"/>
	<path class="st3" d="M187.2,197.3h5.6c0.2,0,0.4,0.2,0.4,0.4v2.2l0,0h-0.1l-0.4-0.4c-0.1-0.1-0.3-0.1-0.4,0l-0.4,0.4l0,0l-0.1-0.1
		v-1c0-0.1-0.1-0.3-0.3-0.3h-3.3c-0.1,0-0.3,0.1-0.3,0.3v1l0,0H188l-0.4-0.4c-0.1-0.1-0.3-0.1-0.4,0l-0.4,0.4l0,0l-0.1-0.1v-2.2
		C186.8,197.4,187,197.3,187.2,197.3"/>
	<path class="st3" d="M194.8,197.3h5.6c0.2,0,0.4,0.2,0.4,0.4v1.7l0,0h-0.1l-0.4-0.4c-0.1-0.1-0.3-0.1-0.4,0l-0.4,0.4l0,0l-0.1-0.1
		v-0.5c0-0.1-0.1-0.3-0.3-0.3h-3.3c-0.1,0-0.3,0.1-0.3,0.3v0.5l0,0h-0.1l-0.4-0.4c-0.1-0.1-0.3-0.1-0.4,0l-0.4,0.4l0,0l-0.1-0.1
		v-1.7C194.4,197.4,194.6,197.3,194.8,197.3"/>
	<path class="st3" d="M200.7,202.2v-2.3l-0.5-0.5c-0.1-0.1-0.3-0.1-0.4,0l-0.5,0.5h-3.8l-0.5-0.5c-0.1-0.1-0.3-0.1-0.4,0l-0.5,0.5
		v2.3l0.1,0.1l0,0l0.4-0.4c0.1-0.1,0.3-0.1,0.4,0l0.4,0.4h0.1l0,0v-0.8c0-0.1,0.1-0.3,0.3-0.3h3.3c0.1,0,0.3,0.1,0.3,0.3v0.8
		l0.1,0.1l0,0l0.4-0.4c0.1-0.1,0.3-0.1,0.4,0L200.7,202.2L200.7,202.2L200.7,202.2z"/>
	<path class="st3" d="M206,202c0-0.1,0.1-0.2,0.2-0.4c0.1-0.1,0.3-0.3,0.5-0.4c0.2-0.1,0.5-0.2,0.7-0.2c0.2,0,0.4,0,0.6,0.1
		c0.2,0.1,0.3,0.1,0.3,0.2l-0.4,0.8c-0.1-0.1-0.1-0.1-0.3-0.2c-0.1-0.1-0.3-0.1-0.5-0.1c-0.2,0-0.4,0.1-0.6,0.2
		c-0.2,0.1-0.3,0.3-0.4,0.5c-0.1,0.2-0.1,0.4-0.1,0.6v2.5h-1v-4.5h1V202z"/>
	<rect x="209" y="201.2" class="st3" width="1" height="4.5"/>
	<rect x="209" y="199.5" class="st3" width="1" height="1"/>
	<rect x="225.3" y="204.6" class="st3" width="1" height="1"/>
	<path class="st3" d="M216.8,201.1c0.3,0,0.6,0.1,0.9,0.2c0.2,0.1,0.4,0.4,0.5,0.7c0.1,0.3,0.2,0.7,0.2,1.1v2.6h-0.9v-2.4
		c0-0.5-0.1-0.9-0.2-1.1c-0.1-0.2-0.4-0.4-0.7-0.4c-0.2,0-0.4,0.1-0.5,0.2c-0.2,0.1-0.3,0.3-0.4,0.5c-0.1,0.2-0.2,0.5-0.2,0.8v2.4
		h-0.9v-2.4c0-0.5-0.1-0.9-0.3-1.1c-0.2-0.2-0.4-0.4-0.7-0.4c-0.2,0-0.4,0.1-0.5,0.2c-0.2,0.1-0.3,0.3-0.4,0.5
		c-0.1,0.2-0.2,0.5-0.2,0.8v2.4h-1v-4.5h1v0.7c0-0.1,0.1-0.2,0.3-0.4c0.1-0.1,0.3-0.2,0.5-0.3c0.2-0.1,0.4-0.1,0.7-0.1
		c0.3,0,0.5,0.1,0.7,0.2c0.2,0.1,0.3,0.2,0.4,0.4c0.1,0.2,0.2,0.3,0.2,0.5c0.1-0.2,0.1-0.3,0.3-0.5c0.1-0.2,0.3-0.3,0.6-0.4
		C216.3,201.1,216.6,201.1,216.8,201.1"/>
	<path class="st3" d="M220.6,203.5c0,0.5,0.1,0.8,0.3,1.1c0.2,0.3,0.5,0.4,0.9,0.4c0.4,0,0.7-0.1,0.9-0.4c0.2-0.3,0.3-0.7,0.3-1.1
		v-2.3h0.9v2.4c0,0.4-0.1,0.8-0.3,1.2c-0.2,0.3-0.4,0.6-0.7,0.8c-0.3,0.2-0.7,0.3-1.2,0.3c-0.5,0-0.9-0.1-1.2-0.3
		c-0.3-0.2-0.6-0.5-0.7-0.8c-0.2-0.3-0.3-0.7-0.3-1.2v-2.4h0.9V203.5z"/>
	<path class="st3" d="M233,201.1c0.3,0,0.6,0.1,0.9,0.2c0.2,0.1,0.4,0.4,0.5,0.7c0.1,0.3,0.2,0.7,0.2,1.1v2.6h-0.9v-2.4
		c0-0.5-0.1-0.9-0.2-1.1c-0.1-0.2-0.4-0.4-0.7-0.4c-0.2,0-0.4,0.1-0.5,0.2c-0.2,0.1-0.3,0.3-0.4,0.5c-0.1,0.2-0.2,0.5-0.2,0.8v2.4
		h-0.9v-2.4c0-0.5-0.1-0.9-0.3-1.1c-0.2-0.2-0.4-0.4-0.7-0.4c-0.2,0-0.4,0.1-0.5,0.2c-0.2,0.1-0.3,0.3-0.4,0.5
		c-0.1,0.2-0.2,0.5-0.2,0.8v2.4h-1v-4.5h1v0.7c0-0.1,0.1-0.2,0.3-0.4c0.1-0.1,0.3-0.2,0.5-0.3c0.2-0.1,0.4-0.1,0.7-0.1
		c0.3,0,0.5,0.1,0.7,0.2c0.2,0.1,0.3,0.2,0.4,0.4c0.1,0.2,0.2,0.3,0.2,0.5c0.1-0.2,0.2-0.3,0.3-0.5c0.1-0.2,0.3-0.3,0.6-0.4
		C232.5,201.1,232.7,201.1,233,201.1"/>
	<path class="st3" d="M236.5,203.7c0,0.3,0.1,0.5,0.2,0.7c0.1,0.2,0.3,0.4,0.5,0.5c0.2,0.1,0.5,0.2,0.8,0.2c0.3,0,0.5,0,0.7-0.1
		c0.2-0.1,0.4-0.2,0.5-0.3c0.1-0.1,0.2-0.2,0.3-0.3l0.5,0.6c-0.1,0.2-0.3,0.3-0.4,0.5c-0.2,0.1-0.4,0.2-0.6,0.3
		c-0.2,0.1-0.6,0.1-0.9,0.1c-0.5,0-0.9-0.1-1.3-0.3c-0.4-0.2-0.6-0.5-0.8-0.9c-0.2-0.4-0.3-0.8-0.3-1.3c0-0.4,0.1-0.8,0.3-1.2
		c0.2-0.4,0.4-0.6,0.8-0.8c0.3-0.2,0.8-0.3,1.2-0.3c0.4,0,0.8,0.1,1.2,0.3s0.6,0.4,0.8,0.8c0.2,0.3,0.3,0.7,0.3,1.2c0,0,0,0.1,0,0.2
		c0,0.1,0,0.1,0,0.2H236.5z M239.2,203c0-0.2,0-0.3-0.1-0.5c-0.1-0.2-0.2-0.3-0.4-0.5c-0.2-0.1-0.4-0.2-0.7-0.2
		c-0.3,0-0.6,0.1-0.8,0.2c-0.2,0.1-0.3,0.3-0.4,0.5c-0.1,0.2-0.1,0.3-0.2,0.5H239.2z"/>
</g>
<g>
	<path class="st4" d="M81.7,222.9c-0.1,0.1-0.1,0.2,0,0.3l0.3,0.3v2.8l-0.3,0.3c-0.1,0.1-0.1,0.2,0,0.3l0.3,0.3h3.7
		c0.2,0,0.3-0.1,0.3-0.3v-0.4c0-0.2-0.1-0.3-0.3-0.3h-2.6c-0.1,0-0.2-0.1-0.2-0.2v-2.4c0-0.1,0.1-0.2,0.2-0.2h2.6
		c0.2,0,0.3-0.1,0.3-0.3v-0.4c0-0.2-0.1-0.3-0.3-0.3H82L81.7,222.9z"/>
	<path class="st4" d="M83.8,217h1.9c0.2,0,0.3,0.1,0.3,0.3v0.4c0,0.2-0.1,0.3-0.3,0.3h-1c-0.1,0-0.2,0.1-0.2,0.2v2.4
		c0,0.1,0.1,0.2,0.2,0.2h1c0.2,0,0.3,0.1,0.3,0.3v0.4c0,0.2-0.1,0.3-0.3,0.3h-1.9l-0.3-0.3c-0.1-0.1-0.1-0.2,0-0.3l0.3-0.3v-2.8
		l-0.3-0.3c-0.1-0.1-0.1-0.2,0-0.3L83.8,217z"/>
	<path class="st4" d="M79.7,226.9v-4.1c0-0.2,0.1-0.3,0.3-0.3h1.6l0,0v0.1l-0.3,0.3c-0.1,0.1-0.1,0.2,0,0.3l0.3,0.3l0,0l0,0h-0.7
		c-0.1,0-0.2,0.1-0.2,0.2v2.4c0,0.1,0.1,0.2,0.2,0.2h0.7l0,0v0.1l-0.3,0.3c-0.1,0.1-0.1,0.2,0,0.3l0.3,0.3l0,0l0,0H80
		C79.8,227.2,79.7,227,79.7,226.9"/>
	<path class="st4" d="M79.7,221.3l0-4.1c0-0.2,0.1-0.3,0.3-0.3h1.2l0,0v0.1l-0.3,0.3c-0.1,0.1-0.1,0.2,0,0.3l0.3,0.3l0,0l0,0h-0.4
		c-0.1,0-0.2,0.1-0.2,0.2v2.4c0,0.1,0.1,0.2,0.2,0.2h0.4l0,0v0.1l-0.3,0.3c-0.1,0.1-0.1,0.2,0,0.3l0.3,0.3l0,0l0,0H80
		C79.8,221.6,79.7,221.5,79.7,221.3"/>
	<path class="st4" d="M83.3,217h-1.7l-0.3,0.3c-0.1,0.1-0.1,0.2,0,0.3l0.3,0.3v2.8l-0.3,0.3c-0.1,0.1-0.1,0.2,0,0.3l0.3,0.3l1.7,0
		l0,0l0,0l-0.3-0.3c-0.1-0.1-0.1-0.2,0-0.3l0.3-0.3v-0.1l0,0h-0.6c-0.1,0-0.2-0.1-0.2-0.2v-2.4c0-0.1,0.1-0.2,0.2-0.2h0.6l0,0l0,0
		l-0.3-0.3c-0.1-0.1-0.1-0.2,0-0.3L83.3,217L83.3,217L83.3,217z"/>
</g>
<line class="st5" x1="90.5" y1="215.7" x2="90.5" y2="236.4"/>
<line class="st5" x1="88.8" y1="215.3" x2="88.8" y2="213"/>
<line class="st5" x1="86" y1="236.8" x2="86" y2="246.1"/>
<line class="st5" x1="85.2" y1="246.1" x2="85.2" y2="300"/>
<line class="st5" x1="80.4" y1="246.1" x2="80.4" y2="300"/>
<line class="st5" x1="79.7" y1="236.8" x2="79.7" y2="246.1"/>
<line class="st5" x1="76.9" y1="215.3" x2="76.9" y2="213"/>
<line class="st5" x1="75.1" y1="215.7" x2="75.1" y2="236.4"/>
<line class="st5" x1="86" y1="246.1" x2="79.7" y2="246.1"/>
<line class="st5" x1="90.1" y1="236.8" x2="75.6" y2="236.8"/>
<line class="st5" x1="90.1" y1="215.3" x2="75.6" y2="215.3"/>
<path class="st5" d="M75.1,236.4c0,0.2,0.2,0.4,0.4,0.4"/>
<path class="st5" d="M90.1,236.8c0.2,0,0.4-0.2,0.4-0.4"/>
<path class="st5" d="M75.6,215.3c-0.2,0-0.4,0.2-0.4,0.4"/>
<path class="st5" d="M90.5,215.7c0-0.2-0.2-0.4-0.4-0.4"/>
<path class="st0" d="M569.6,208.5H340.4c-1.4,0-2.5-1.1-2.5-2.5V69.4c0-1.4,1.1-2.5,2.5-2.5h229.2c1.4,0,2.5,1.1,2.5,2.5V206
	C572.1,207.4,571,208.5,569.6,208.5z"/>
<rect x="358.7" y="79.9" class="st1" width="192.7" height="115.5"/>
<line class="st2" x1="333.4" y1="68.2" x2="333.4" y2="207.2"/>
<line class="st2" x1="337.9" y1="68.2" x2="337.9" y2="207.2"/>
<line class="st2" x1="468.5" y1="215" x2="441.6" y2="215"/>
<line class="st2" x1="571" y1="213" x2="471.9" y2="213"/>
<line class="st2" x1="438.3" y1="213" x2="339.2" y2="213"/>
<line class="st2" x1="339.2" y1="208.5" x2="571" y2="208.5"/>
<line class="st2" x1="439.3" y1="61.9" x2="440.2" y2="61"/>
<line class="st2" x1="440.2" y1="214.4" x2="439.3" y2="213.6"/>
<line class="st2" x1="470.9" y1="213.6" x2="470" y2="214.4"/>
<line class="st2" x1="470" y1="61" x2="470.9" y2="61.9"/>
<line class="st2" x1="571" y1="66.9" x2="339.2" y2="66.9"/>
<line class="st2" x1="339.2" y1="62.5" x2="438.3" y2="62.5"/>
<line class="st2" x1="471.9" y1="62.5" x2="571" y2="62.5"/>
<line class="st2" x1="441.6" y1="60.4" x2="468.5" y2="60.4"/>
<line class="st2" x1="572.3" y1="207.2" x2="572.3" y2="68.2"/>
<line class="st2" x1="576.7" y1="207.2" x2="576.7" y2="68.2"/>
<path class="st2" d="M571,213l0.8,0c2.5-0.4,4.5-2.4,4.9-4.9l0-0.8"/>
<path class="st2" d="M333.5,207.2l0,0.8c0.4,2.5,2.4,4.5,4.9,4.9l0.8,0"/>
<path class="st2" d="M339.2,62.5l-0.8,0c-2.5,0.4-4.5,2.4-4.9,4.9l0,0.8"/>
<path class="st2" d="M576.7,68.2l0-0.8c-0.4-2.5-2.4-4.5-4.9-4.9l-0.8,0"/>
<polyline class="st2" points="440.2,214.4 440.6,214.7 441.1,214.9 441.6,215 "/>
<polyline class="st2" points="468.5,215 469.1,214.9 469.5,214.7 470,214.4 "/>
<polyline class="st2" points="470,61 469.5,60.7 469.1,60.5 468.5,60.4 "/>
<polyline class="st2" points="441.6,60.4 441.1,60.5 440.6,60.7 440.2,61 "/>
<polyline class="st2" points="439.3,213.6 438.9,213.3 438.4,213.1 437.9,213 "/>
<polyline class="st2" points="470.9,61.8 471.3,62.2 471.8,62.4 472.3,62.4 "/>
<polyline class="st2" points="472.3,213 471.8,213.1 471.3,213.3 470.9,213.6 "/>
<polyline class="st2" points="437.9,62.4 438.4,62.4 438.9,62.2 439.3,61.8 "/>
<polyline class="st2" points="339.2,66.9 338.8,67 338.5,67.2 338.2,67.5 338,67.9 337.9,68.2 "/>
<polyline class="st2" points="572.3,68.2 572.2,67.9 572,67.5 571.8,67.2 571.4,67 571,66.9 "/>
<polyline class="st2" points="571,208.5 571.4,208.5 571.8,208.2 572,208 572.2,207.6 572.3,207.2 "/>
<polyline class="st2" points="337.9,207.2 338,207.6 338.2,208 338.5,208.2 338.8,208.5 339.2,208.5 "/>
<line class="st2" x1="463" y1="215" x2="463.3" y2="215"/>
<line class="st2" x1="452" y1="66.9" x2="452.5" y2="66.9"/>
<g>
	<path class="st3" d="M503.8,200c-0.1-0.1-0.3-0.1-0.4,0l-0.5,0.5h-3.8l-0.5-0.5c-0.1-0.1-0.3-0.1-0.4,0l-0.5,0.5v5.1
		c0,0.2,0.2,0.4,0.4,0.4h0.5c0.2,0,0.4-0.2,0.4-0.4V202c0-0.1,0.1-0.3,0.3-0.3h3.3c0.1,0,0.3,0.1,0.3,0.3v3.5c0,0.2,0.2,0.4,0.4,0.4
		h0.5c0.2,0,0.4-0.2,0.4-0.4v-5.1L503.8,200z"/>
	<path class="st3" d="M511.9,202.8v2.7c0,0.2-0.2,0.4-0.4,0.4H511c-0.2,0-0.4-0.2-0.4-0.4v-1.4c0-0.1-0.1-0.3-0.3-0.3h-3.3
		c-0.1,0-0.3,0.1-0.3,0.3v1.4c0,0.2-0.2,0.4-0.4,0.4h-0.5c-0.2,0-0.4-0.2-0.4-0.4v-2.7l0.5-0.5c0.1-0.1,0.3-0.1,0.4,0l0.5,0.5h3.8
		l0.5-0.5c0.1-0.1,0.3-0.1,0.4,0L511.9,202.8z"/>
	<path class="st3" d="M498.3,197.3h5.6c0.2,0,0.4,0.2,0.4,0.4v2.2l0,0h-0.1l-0.4-0.4c-0.1-0.1-0.3-0.1-0.4,0l-0.4,0.4l0,0l-0.1-0.1
		v-1c0-0.1-0.1-0.3-0.3-0.3h-3.3c-0.1,0-0.3,0.1-0.3,0.3v1l0,0h-0.1l-0.4-0.4c-0.1-0.1-0.3-0.1-0.4,0l-0.4,0.4l0,0l-0.1-0.1v-2.2
		C498,197.4,498.1,197.3,498.3,197.3"/>
	<path class="st3" d="M505.9,197.3h5.6c0.2,0,0.4,0.2,0.4,0.4v1.7l0,0h-0.1l-0.4-0.4c-0.1-0.1-0.3-0.1-0.4,0l-0.4,0.4l0,0l-0.1-0.1
		v-0.5c0-0.1-0.1-0.3-0.3-0.3h-3.3c-0.1,0-0.3,0.1-0.3,0.3v0.5l0,0h-0.1l-0.4-0.4c-0.1-0.1-0.3-0.1-0.4,0l-0.4,0.4l0,0l-0.1-0.1
		v-1.7C505.6,197.4,505.7,197.3,505.9,197.3"/>
	<path class="st3" d="M511.9,202.2v-2.3l-0.5-0.5c-0.1-0.1-0.3-0.1-0.4,0l-0.5,0.5h-3.8l-0.5-0.5c-0.1-0.1-0.3-0.1-0.4,0l-0.5,0.5
		v2.3l0.1,0.1l0,0l0.4-0.4c0.1-0.1,0.3-0.1,0.4,0l0.4,0.4h0.1l0,0v-0.8c0-0.1,0.1-0.3,0.3-0.3h3.3c0.1,0,0.3,0.1,0.3,0.3v0.8
		l0.1,0.1l0,0l0.4-0.4c0.1-0.1,0.3-0.1,0.4,0L511.9,202.2L511.9,202.2L511.9,202.2z"/>
	<path class="st3" d="M517.1,202c0-0.1,0.1-0.2,0.2-0.4c0.1-0.1,0.3-0.3,0.5-0.4c0.2-0.1,0.5-0.2,0.7-0.2c0.2,0,0.4,0,0.6,0.1
		c0.2,0.1,0.3,0.1,0.3,0.2l-0.4,0.8c-0.1-0.1-0.1-0.1-0.3-0.2c-0.1-0.1-0.3-0.1-0.5-0.1c-0.2,0-0.4,0.1-0.6,0.2
		c-0.2,0.1-0.3,0.3-0.4,0.5c-0.1,0.2-0.1,0.4-0.1,0.6v2.5h-1v-4.5h1V202z"/>
	<rect x="520.1" y="201.2" class="st3" width="1" height="4.5"/>
	<rect x="520.1" y="199.5" class="st3" width="1" height="1"/>
	<rect x="536.5" y="204.6" class="st3" width="1" height="1"/>
	<path class="st3" d="M528,201.1c0.3,0,0.6,0.1,0.9,0.2c0.2,0.1,0.4,0.4,0.5,0.7c0.1,0.3,0.2,0.7,0.2,1.1v2.6h-0.9v-2.4
		c0-0.5-0.1-0.9-0.2-1.1c-0.1-0.2-0.4-0.4-0.7-0.4c-0.2,0-0.4,0.1-0.5,0.2c-0.2,0.1-0.3,0.3-0.4,0.5c-0.1,0.2-0.2,0.5-0.2,0.8v2.4
		h-0.9v-2.4c0-0.5-0.1-0.9-0.3-1.1c-0.2-0.2-0.4-0.4-0.7-0.4c-0.2,0-0.4,0.1-0.5,0.2c-0.2,0.1-0.3,0.3-0.4,0.5
		c-0.1,0.2-0.2,0.5-0.2,0.8v2.4h-1v-4.5h1v0.7c0-0.1,0.1-0.2,0.3-0.4c0.1-0.1,0.3-0.2,0.5-0.3c0.2-0.1,0.4-0.1,0.7-0.1
		c0.3,0,0.5,0.1,0.7,0.2c0.2,0.1,0.3,0.2,0.4,0.4c0.1,0.2,0.2,0.3,0.2,0.5c0.1-0.2,0.1-0.3,0.3-0.5c0.1-0.2,0.3-0.3,0.6-0.4
		C527.5,201.1,527.7,201.1,528,201.1"/>
	<path class="st3" d="M531.8,203.5c0,0.5,0.1,0.8,0.3,1.1c0.2,0.3,0.5,0.4,0.9,0.4c0.4,0,0.7-0.1,0.9-0.4c0.2-0.3,0.3-0.7,0.3-1.1
		v-2.3h0.9v2.4c0,0.4-0.1,0.8-0.3,1.2c-0.2,0.3-0.4,0.6-0.7,0.8c-0.3,0.2-0.7,0.3-1.2,0.3c-0.5,0-0.9-0.1-1.2-0.3s-0.6-0.5-0.7-0.8
		c-0.2-0.3-0.3-0.7-0.3-1.2v-2.4h0.9V203.5z"/>
	<path class="st3" d="M544.1,201.1c0.3,0,0.6,0.1,0.9,0.2c0.2,0.1,0.4,0.4,0.5,0.7c0.1,0.3,0.2,0.7,0.2,1.1v2.6h-0.9v-2.4
		c0-0.5-0.1-0.9-0.2-1.1c-0.1-0.2-0.4-0.4-0.7-0.4c-0.2,0-0.4,0.1-0.5,0.2c-0.2,0.1-0.3,0.3-0.4,0.5c-0.1,0.2-0.2,0.5-0.2,0.8v2.4
		h-0.9v-2.4c0-0.5-0.1-0.9-0.3-1.1c-0.2-0.2-0.4-0.4-0.7-0.4c-0.2,0-0.4,0.1-0.5,0.2c-0.2,0.1-0.3,0.3-0.4,0.5
		c-0.1,0.2-0.2,0.5-0.2,0.8v2.4h-1v-4.5h1v0.7c0-0.1,0.1-0.2,0.3-0.4c0.1-0.1,0.3-0.2,0.5-0.3c0.2-0.1,0.4-0.1,0.7-0.1
		c0.3,0,0.5,0.1,0.7,0.2c0.2,0.1,0.3,0.2,0.4,0.4c0.1,0.2,0.2,0.3,0.2,0.5c0.1-0.2,0.2-0.3,0.3-0.5c0.1-0.2,0.3-0.3,0.6-0.4
		C543.6,201.1,543.9,201.1,544.1,201.1"/>
	<path class="st3" d="M547.7,203.7c0,0.3,0.1,0.5,0.2,0.7c0.1,0.2,0.3,0.4,0.5,0.5c0.2,0.1,0.5,0.2,0.8,0.2c0.3,0,0.5,0,0.7-0.1
		c0.2-0.1,0.4-0.2,0.5-0.3c0.1-0.1,0.2-0.2,0.3-0.3l0.5,0.6c-0.1,0.2-0.3,0.3-0.4,0.5c-0.2,0.1-0.4,0.2-0.6,0.3
		c-0.2,0.1-0.6,0.1-0.9,0.1c-0.5,0-0.9-0.1-1.3-0.3c-0.4-0.2-0.6-0.5-0.8-0.9c-0.2-0.4-0.3-0.8-0.3-1.3c0-0.4,0.1-0.8,0.3-1.2
		c0.2-0.4,0.4-0.6,0.8-0.8c0.3-0.2,0.8-0.3,1.2-0.3c0.4,0,0.8,0.1,1.2,0.3c0.3,0.2,0.6,0.4,0.8,0.8c0.2,0.3,0.3,0.7,0.3,1.2
		c0,0,0,0.1,0,0.2c0,0.1,0,0.1,0,0.2H547.7z M550.3,203c0-0.2,0-0.3-0.1-0.5c-0.1-0.2-0.2-0.3-0.4-0.5c-0.2-0.1-0.4-0.2-0.7-0.2
		c-0.3,0-0.6,0.1-0.8,0.2c-0.2,0.1-0.3,0.3-0.4,0.5c-0.1,0.2-0.1,0.3-0.2,0.5H550.3z"/>
</g>
<line class="st5" x1="401.7" y1="215.7" x2="401.7" y2="236.4"/>
<line class="st5" x1="399.9" y1="215.3" x2="399.9" y2="213"/>
<line class="st5" x1="397.2" y1="236.8" x2="397.2" y2="246.1"/>
<line class="st5" x1="396.4" y1="246.1" x2="396.4" y2="300"/>
<line class="st5" x1="391.6" y1="246.1" x2="391.6" y2="300"/>
<line class="st5" x1="390.8" y1="236.8" x2="390.8" y2="246.1"/>
<line class="st5" x1="388" y1="215.3" x2="388" y2="213"/>
<line class="st5" x1="386.3" y1="215.7" x2="386.3" y2="236.4"/>
<line class="st5" x1="397.2" y1="246.1" x2="390.8" y2="246.1"/>
<line class="st5" x1="401.2" y1="236.8" x2="386.7" y2="236.8"/>
<line class="st5" x1="401.2" y1="215.3" x2="386.7" y2="215.3"/>
<path class="st5" d="M386.3,236.4c0,0.2,0.2,0.4,0.4,0.4"/>
<path class="st5" d="M401.2,236.8c0.2,0,0.4-0.2,0.4-0.4"/>
<path class="st5" d="M386.7,215.3c-0.2,0-0.4,0.2-0.4,0.4"/>
<path class="st5" d="M401.7,215.7c0-0.2-0.2-0.4-0.4-0.4"/>
<g>
	<path class="st3" d="M489.3,269.1v6.7c0,1.2-0.3,2.2-0.9,2.8c-0.6,0.6-1.5,1-2.6,1c-2.3,0-3.4-1.3-3.4-3.8v-6.6h1.3v6.6
		c0,1.8,0.7,2.7,2.2,2.7c1.4,0,2.1-0.9,2.1-2.7v-6.6H489.3z"/>
	<path class="st3" d="M497.2,279.4l-1-3.2h-3.5l-1,3.2h-1.3l3.4-10.3h1.4l3.4,10.3H497.2z M495.8,275.1l-0.9-3
		c-0.2-0.6-0.3-1.1-0.4-1.6c-0.1,0.5-0.2,0.9-0.3,1.3l-1,3.3H495.8z"/>
	<path class="st3" d="M501.4,275.2v4.3h-1.3v-10.3h2.5c2.4,0,3.7,1,3.7,2.9c0,1.3-0.7,2.3-2,2.8l2.8,4.6h-1.5l-2.5-4.3H501.4z
		 M501.4,274.1h1.2c0.8,0,1.4-0.2,1.8-0.5c0.4-0.3,0.6-0.8,0.6-1.5c0-0.7-0.2-1.1-0.6-1.4c-0.4-0.3-1-0.4-1.8-0.4h-1.1V274.1z"/>
	<path class="st3" d="M512.4,279.4h-1.3v-9.1h-2.9v-1.2h7.2v1.2h-2.9V279.4z"/>
	<path class="st3" d="M529.8,279.4h-1.3v-9.1h-2.9v-1.2h7.2v1.2h-2.9V279.4z"/>
	<path class="st3" d="M537.7,279.6c-1,0-1.8-0.4-2.5-1.1c-0.7-0.7-1-1.7-1-2.9c0-1.2,0.3-2.2,1-2.9c0.6-0.7,1.5-1.1,2.6-1.1
		c1,0,1.9,0.4,2.5,1.1c0.7,0.7,1,1.7,1,2.9c0,1.2-0.3,2.2-1,2.9C539.7,279.2,538.8,279.6,537.7,279.6z M537.8,278.5
		c1.5,0,2.2-1,2.2-3c0-2-0.7-2.9-2.2-2.9c-1.5,0-2.2,1-2.2,2.9C535.6,277.5,536.3,278.5,537.8,278.5z"/>
	<path class="st3" d="M558.5,269.1v6.7c0,1.2-0.3,2.2-0.9,2.8c-0.6,0.6-1.5,1-2.6,1c-2.3,0-3.4-1.3-3.4-3.8v-6.6h1.3v6.6
		c0,1.8,0.7,2.7,2.2,2.7c1.4,0,2.1-0.9,2.1-2.7v-6.6H558.5z"/>
	<path class="st3" d="M560.4,279.1v-1.3c1,0.4,2,0.6,2.9,0.6c1.6,0,2.5-0.6,2.5-1.7c0-0.5-0.2-0.9-0.5-1.1c-0.3-0.3-1-0.6-2-0.9
		c-1-0.3-1.7-0.8-2.1-1.2c-0.4-0.5-0.6-1.1-0.6-1.9c0-0.8,0.3-1.5,0.9-1.9c0.6-0.5,1.4-0.7,2.5-0.7c1.1,0,2.1,0.2,2.9,0.5l-0.5,1.2
		c-0.9-0.4-1.8-0.5-2.5-0.5c-1.4,0-2.1,0.5-2.1,1.5c0,0.5,0.2,0.9,0.5,1.2c0.3,0.3,0.9,0.6,1.9,0.9c1.2,0.4,1.9,0.8,2.3,1.3
		c0.4,0.4,0.6,1,0.6,1.7c0,0.9-0.3,1.6-1,2.1c-0.7,0.5-1.6,0.8-2.8,0.8C562.1,279.6,561.1,279.4,560.4,279.1z"/>
	<path class="st3" d="M569,269.1h3.1c1.3,0,2.2,0.2,2.8,0.6c0.6,0.4,0.9,1.1,0.9,2c0,0.6-0.2,1.1-0.6,1.5c-0.4,0.4-0.9,0.6-1.5,0.7
		v0.1c1.6,0.3,2.3,1.1,2.3,2.4c0,0.9-0.3,1.7-0.9,2.2c-0.6,0.5-1.4,0.8-2.4,0.8H569V269.1z M570.3,273.5h2c0.7,0,1.3-0.1,1.6-0.4
		c0.3-0.3,0.5-0.7,0.5-1.3c0-0.6-0.2-1-0.5-1.2c-0.4-0.2-0.9-0.4-1.7-0.4h-1.9V273.5z M570.3,274.6v3.7h2.2c1.5,0,2.2-0.6,2.2-1.9
		c0-1.2-0.8-1.8-2.3-1.8H570.3z"/>
</g>
<g>
	<path class="st3" d="M134.8,269.1v6.7c0,1.2-0.3,2.2-0.9,2.8c-0.6,0.6-1.5,1-2.6,1c-2.3,0-3.4-1.3-3.4-3.8v-6.6h1.3v6.6
		c0,1.8,0.7,2.7,2.2,2.7c1.4,0,2.1-0.9,2.1-2.7v-6.6H134.8z"/>
	<path class="st3" d="M136.7,279.1v-1.3c1,0.4,2,0.6,2.9,0.6c1.6,0,2.5-0.6,2.5-1.7c0-0.5-0.2-0.9-0.5-1.1c-0.3-0.3-1-0.6-2-0.9
		c-1-0.3-1.7-0.8-2.1-1.2c-0.4-0.5-0.6-1.1-0.6-1.9c0-0.8,0.3-1.5,0.9-1.9c0.6-0.5,1.4-0.7,2.5-0.7c1.1,0,2.1,0.2,2.9,0.5l-0.5,1.2
		c-0.9-0.4-1.8-0.5-2.5-0.5c-1.4,0-2.1,0.5-2.1,1.5c0,0.5,0.2,0.9,0.5,1.2c0.3,0.3,0.9,0.6,1.9,0.9c1.2,0.4,1.9,0.8,2.3,1.3
		c0.4,0.4,0.6,1,0.6,1.7c0,0.9-0.3,1.6-1,2.1c-0.7,0.5-1.6,0.8-2.8,0.8C138.4,279.6,137.4,279.4,136.7,279.1z"/>
	<path class="st3" d="M145.3,269.1h3.1c1.3,0,2.2,0.2,2.8,0.6c0.6,0.4,0.9,1.1,0.9,2c0,0.6-0.2,1.1-0.6,1.5
		c-0.4,0.4-0.9,0.6-1.5,0.7v0.1c1.6,0.3,2.3,1.1,2.3,2.4c0,0.9-0.3,1.7-0.9,2.2c-0.6,0.5-1.4,0.8-2.4,0.8h-3.7V269.1z M146.6,273.5
		h2c0.7,0,1.3-0.1,1.6-0.4c0.3-0.3,0.5-0.7,0.5-1.3c0-0.6-0.2-1-0.5-1.2c-0.4-0.2-0.9-0.4-1.7-0.4h-1.9V273.5z M146.6,274.6v3.7h2.2
		c1.5,0,2.2-0.6,2.2-1.9c0-1.2-0.8-1.8-2.3-1.8H146.6z"/>
	<path class="st3" d="M162.6,279.4v-10.3h2.4c1.5,0,2.6,0.4,3.5,1.3c0.8,0.9,1.2,2.1,1.2,3.7c0,1.7-0.4,3-1.3,3.9
		c-0.9,0.9-2.1,1.4-3.7,1.4H162.6z M163.9,270.2v8.1h0.7c2.5,0,3.7-1.4,3.7-4.1c0-2.6-1.2-4-3.5-4H163.9z"/>
	<path class="st3" d="M178.1,275.8h-5.5c0,1.8,0.8,2.6,2.4,2.6c0.9,0,1.8-0.2,2.6-0.5v1.1c-0.8,0.4-1.6,0.5-2.6,0.5
		c-1.2,0-2.1-0.4-2.8-1.1c-0.7-0.7-1-1.7-1-2.9c0-1.2,0.3-2.2,1-3c0.6-0.7,1.5-1.1,2.6-1.1c1,0,1.8,0.3,2.4,0.9
		c0.6,0.6,0.9,1.5,0.9,2.5V275.8z M172.6,274.8h4c0-1.4-0.6-2.1-1.9-2.1C173.5,272.6,172.8,273.3,172.6,274.8z"/>
	<path class="st3" d="M182.5,279.4l-2.9-7.7h1.3l1.7,4.6c0.4,1.1,0.6,1.8,0.7,2.3h0c0-0.2,0.3-1,0.7-2.3l1.7-4.6h1.3l-2.9,7.7H182.5
		z"/>
	<path class="st3" d="M191.5,272.7l-1.9-0.1v-0.9h3.2v6.7l2.5,0.1v0.9H189v-0.9l2.4-0.1V272.7z M192.1,268.5c0.5,0,0.7,0.3,0.7,0.8
		c0,0.3-0.1,0.5-0.2,0.6c-0.1,0.1-0.3,0.2-0.5,0.2c-0.5,0-0.8-0.3-0.8-0.8C191.4,268.8,191.6,268.5,192.1,268.5z"/>
	<path class="st3" d="M203.8,272l-0.4,1.1c-0.7-0.3-1.3-0.4-1.9-0.4c-1.7,0-2.6,1-2.6,2.9c0,1.9,0.8,2.9,2.5,2.9
		c0.7,0,1.5-0.1,2.3-0.4v1.1c-0.6,0.3-1.4,0.4-2.3,0.4c-1.2,0-2.1-0.3-2.8-1s-1-1.7-1-2.9c0-1.3,0.3-2.3,1-3c0.7-0.7,1.6-1,2.9-1
		C202.3,271.5,203,271.7,203.8,272z"/>
	<path class="st3" d="M212.7,275.8h-5.5c0,1.8,0.8,2.6,2.4,2.6c0.9,0,1.8-0.2,2.6-0.5v1.1c-0.8,0.4-1.6,0.5-2.6,0.5
		c-1.2,0-2.1-0.4-2.8-1.1c-0.7-0.7-1-1.7-1-2.9c0-1.2,0.3-2.2,1-3c0.6-0.7,1.5-1.1,2.6-1.1c1,0,1.8,0.3,2.4,0.9
		c0.6,0.6,0.9,1.5,0.9,2.5V275.8z M207.3,274.8h4c0-1.4-0.6-2.1-1.9-2.1C208.1,272.6,207.4,273.3,207.3,274.8z"/>
	<path class="st3" d="M223.3,279.1v-1.3c1,0.4,2,0.6,2.9,0.6c1.6,0,2.5-0.6,2.5-1.7c0-0.5-0.2-0.9-0.5-1.1c-0.3-0.3-1-0.6-2-0.9
		c-1-0.3-1.7-0.8-2.1-1.2c-0.4-0.5-0.6-1.1-0.6-1.9c0-0.8,0.3-1.5,0.9-1.9c0.6-0.5,1.4-0.7,2.5-0.7c1.1,0,2.1,0.2,2.9,0.5l-0.5,1.2
		c-0.9-0.4-1.8-0.5-2.5-0.5c-1.4,0-2.1,0.5-2.1,1.5c0,0.5,0.2,0.9,0.5,1.2c0.3,0.3,0.9,0.6,1.9,0.9c1.2,0.4,1.9,0.8,2.3,1.3
		c0.4,0.4,0.6,1,0.6,1.7c0,0.9-0.3,1.6-1,2.1c-0.7,0.5-1.6,0.8-2.8,0.8C225,279.6,224,279.4,223.3,279.1z"/>
	<path class="st3" d="M238.1,278.4v1c-0.6,0.2-1.2,0.2-1.8,0.2c-1.7,0-2.5-0.8-2.5-2.4v-4.5h-1.9V272l1.9-0.3l0.5-2h0.7v2.1h3.1v1
		h-3.1v4.5c0,0.9,0.5,1.4,1.4,1.4C236.9,278.5,237.4,278.5,238.1,278.4z"/>
	<path class="st3" d="M245.9,279.4l-0.3-1.1h-0.1c-0.4,0.5-0.7,0.8-1.1,0.9s-0.9,0.3-1.5,0.3c-0.8,0-1.4-0.2-1.8-0.6
		c-0.4-0.4-0.7-1-0.7-1.7c0-1.6,1.2-2.4,3.6-2.5l1.4,0v-0.5c0-1.1-0.6-1.7-1.7-1.7c-0.7,0-1.5,0.2-2.3,0.6l-0.4-1
		c0.9-0.5,1.8-0.7,2.7-0.7c1.1,0,1.8,0.2,2.3,0.6s0.7,1.1,0.7,2v5.3H245.9z M245.6,275.6l-1.1,0c-0.9,0-1.6,0.2-2,0.4
		c-0.4,0.3-0.6,0.6-0.6,1.2c0,0.8,0.5,1.3,1.4,1.3c0.7,0,1.2-0.2,1.7-0.6c0.4-0.4,0.6-0.9,0.6-1.6V275.6z"/>
	<path class="st3" d="M255.7,272l-0.4,1.1c-0.7-0.3-1.3-0.4-1.9-0.4c-1.7,0-2.6,1-2.6,2.9c0,1.9,0.8,2.9,2.5,2.9
		c0.7,0,1.5-0.1,2.3-0.4v1.1c-0.6,0.3-1.4,0.4-2.3,0.4c-1.2,0-2.1-0.3-2.8-1c-0.7-0.7-1-1.7-1-2.9c0-1.3,0.3-2.3,1-3
		c0.7-0.7,1.6-1,2.9-1C254.2,271.5,255,271.7,255.7,272z"/>
	<path class="st3" d="M259.6,275.5l1-1.1l2.8-2.8h1.6l-3.5,3.3l3.7,4.4h-1.5l-3-3.6l-0.9,0.6v3h-1.3v-11h1.3v5L259.6,275.5
		L259.6,275.5z"/>
</g>
</svg>

